<svg width="28" height="22" viewBox="0 0 28 22" fill="none" xmlns="http://www.w3.org/2000/svg">
<path d="M27.3359 10.1609C24.7953 4.41406 19.7609 0.5 14 0.5C8.23906 0.5 3.20422 4.41875 0.662609 10.1609C0.573266 10.4094 0.5 10.7656 0.5 11C0.5 11.2333 0.573219 11.5906 0.662609 11.7983C3.20563 17.5859 8.23906 21.5 14 21.5C19.7609 21.5 24.7953 17.5822 27.3359 11.8391C27.425 11.5906 27.5 11.1922 27.5 11C27.5 10.7656 27.425 10.4094 27.3359 10.1609ZM20.75 11C20.75 14.7242 17.728 17.75 14.0047 17.75C10.2781 17.75 7.25 14.7266 7.25 11C7.25 7.27344 10.2734 4.25 14 4.25C17.7266 4.25 20.75 7.27344 20.75 11ZM14 6.5C13.8922 6.5 13.7375 6.51875 13.6016 6.5375C13.85 6.96875 14 7.46562 14 8C14 9.65703 12.657 11 11 11C10.4656 11 9.92656 10.8453 9.53281 10.6016C9.51875 10.7422 9.5 10.8875 9.5 11C9.5 13.4422 11.5156 15.5 14 15.5C16.4844 15.5 18.5 13.4848 18.5 11.0005C18.5 8.51609 16.4422 6.5 14 6.5Z" fill="white"/>
</svg>
